<?xml version="1.0" encoding="UTF-8" standalone="no"?>
<!-- Created with Inkscape (http://www.inkscape.org/) -->

<svg
   xmlns:dc="http://purl.org/dc/elements/1.1/"
   xmlns:cc="http://creativecommons.org/ns#"
   xmlns:rdf="http://www.w3.org/1999/02/22-rdf-syntax-ns#"
   xmlns:svg="http://www.w3.org/2000/svg"
   xmlns="http://www.w3.org/2000/svg"
   xmlns:sodipodi="http://sodipodi.sourceforge.net/DTD/sodipodi-0.dtd"
   xmlns:inkscape="http://www.inkscape.org/namespaces/inkscape"
   width="178.90469mm"
   height="107.91077mm"
   viewBox="0 0 633.91427 382.36098"
   id="svg4171"
   version="1.1"
   inkscape:version="0.91 r13725"
   sodipodi:docname="eterinty icon alt.svg"
   inkscape:export-filename="C:\Users\Anth\Desktop\eterinty icon.png"
   inkscape:export-xdpi="90"
   inkscape:export-ydpi="90">
  <defs
     id="defs4173" />
  <sodipodi:namedview
     id="base"
     bordercolor="#666666"
     borderopacity="1.0"
     inkscape:pageopacity="0"
     inkscape:pageshadow="2"
     inkscape:zoom="0.35"
     inkscape:cx="-108.04286"
     inkscape:cy="-69.953285"
     inkscape:document-units="px"
     inkscape:current-layer="layer1"
     showgrid="false"
     inkscape:window-width="1920"
     inkscape:window-height="1017"
     inkscape:window-x="-8"
     inkscape:window-y="-8"
     inkscape:window-maximized="1"
     pagecolor="#ffffff"
     fit-margin-top="0"
     fit-margin-left="0"
     fit-margin-right="0"
     fit-margin-bottom="0"
     inkscape:showpageshadow="true"
     showborder="true" />
  <metadata
     id="metadata4176">
    <rdf:RDF>
      <cc:Work
         rdf:about="">
        <dc:format>image/svg+xml</dc:format>
        <dc:type
           rdf:resource="http://purl.org/dc/dcmitype/StillImage" />
        <dc:title></dc:title>
      </cc:Work>
    </rdf:RDF>
  </metadata>
  <g
     inkscape:label="Layer 1"
     inkscape:groupmode="layer"
     id="layer1"
     transform="translate(-55.9,-80.047923)">
    <path
       inkscape:connector-curvature="0"
       d="m 247.0805,164.13859 c -12.93703,0 -22.99916,10.78086 -22.99916,22.99916 l 0,84.09067 c 0,0.71872 0,0.71872 0,1.43745 0,0.71872 0,1.43744 0,2.87489 0,0.71872 0,1.43745 0.71872,2.15617 0,0.71873 0.71873,1.43745 0.71873,2.15617 0,0.71873 0.71872,1.43745 0.71872,2.15617 0,0.71873 0,0.71873 0.71873,1.43745 l 41.68597,72.59109 c 4.31234,7.18724 12.2183,11.49958 20.12426,11.49958 3.59362,0 7.90596,-0.71872 11.49958,-2.87489 11.49958,-6.46852 15.0932,-20.84299 8.62469,-31.62384 l -38.81108,-67.56003 0,-78.34088 c 0,-12.93703 -10.06213,-22.99916 -22.99916,-22.99916 z"
       id="path4"
       style="fill:#252525;fill-opacity:1" />
    <path
       inkscape:connector-curvature="0"
       d="m 666.81513,80.047923 -419.73463,0 c 0,0 0,0 0,0 -51.02938,0 -99.18387,20.124257 -135.12005,56.060447 C 76.02426,172.04455 55.9,220.19904 55.9,271.22842 c 0,51.02938 20.12426,99.18387 56.06045,135.12005 37.37363,37.37363 86.24684,56.06045 135.12005,56.06045 48.87321,0 97.74642,-18.68682 135.12005,-56.06045 8.62468,-8.62468 16.53065,-17.96809 22.99916,-28.03022 l 51.7481,0 c 12.93703,0 22.99916,-10.78086 22.99916,-22.99916 0,-12.93703 -10.78085,-22.99916 -22.99916,-22.99916 l -64.68513,0 c 0,0 -0.71872,0 -0.71872,0 -0.71873,0 -1.43745,0 -2.15617,0 -0.71873,0 -1.43745,0 -2.8749,0.71873 -0.71872,0 -0.71872,0 -1.43744,0.71872 -0.71873,0 -2.15618,0.71872 -2.8749,0.71872 -0.71872,0 -0.71872,0.71873 -1.43745,0.71873 -0.71872,0.71872 -1.43744,0.71872 -2.15617,1.43744 -0.71872,0 -0.71872,0.71873 -1.43745,0.71873 -0.71872,0.71872 -1.43744,1.43744 -2.15617,2.15617 0,0 -0.71872,0.71872 -0.71872,1.43745 -0.71872,0.71872 -1.43745,1.43744 -2.15617,2.87489 0,0 0,0 0,0.71872 -6.46851,10.78086 -14.37447,20.84299 -22.99916,30.1864 -56.06045,56.06045 -148.05708,56.06045 -204.11752,0 -27.3115,-27.3115 -42.4047,-63.24769 -42.4047,-102.05876 0,-38.81108 15.0932,-74.74727 42.4047,-102.05877 27.3115,-27.3115 63.24768,-42.40469 102.05876,-42.40469 l 419.73463,0 c 12.93702,0 22.99916,-10.78086 22.99916,-22.99916 0,-12.218297 -10.78086,-25.155327 -22.99916,-25.155327 z"
       id="path6"
       style="fill:#ffffff;fill-opacity:1" />
    <path
       inkscape:connector-curvature="0"
       d="m 624.41043,164.13859 -167.46262,0 c -12.93702,0 -22.99915,10.78086 -22.99915,22.99916 0,12.2183 10.78085,22.99916 22.99915,22.99916 l 167.46262,0 c 12.93703,0 22.99916,-10.78086 22.99916,-22.99916 0,-12.2183 -10.06213,-22.99916 -22.99916,-22.99916 z"
       id="path8"
       style="fill:#ffffff;fill-opacity:1" />
    <path
       inkscape:connector-curvature="0"
       d="m 540.31976,248.22926 -125.77664,0 c -12.93703,0 -22.99916,10.78086 -22.99916,22.99916 0,12.93703 10.78085,22.99916 22.99916,22.99916 l 125.77664,0 c 12.93703,0 22.99916,-10.78086 22.99916,-22.99916 0.71872,-12.93703 -10.06213,-22.99916 -22.99916,-22.99916 z"
       id="path10"
       style="fill:#ffffff;fill-opacity:1" />
  </g>
</svg>
