<svg xmlns="http://www.w3.org/2000/svg" xmlns:xlink="http://www.w3.org/1999/xlink" version="1.1" x="0px" y="0px" viewBox="0 0 512 640" enable-background="new 0 0 512 512" xml:space="preserve"><g><path d="M395.3,67.5h-49.2v-8.2c0-13.6-11-24.6-24.6-24.6h-25.4C292.3,16.1,275.8,2,256,2s-36.3,14.1-40.1,32.8h-25.4   c-13.6,0-24.6,11-24.6,24.6v8.2h-49.2c-22.6,0-41,18.4-41,41V469c0,22.6,18.4,41,41,41h278.6c22.6,0,41-18.4,41-41V108.5   C436.3,85.9,417.9,67.5,395.3,67.5z M182.3,59.4c0-4.5,3.7-8.2,8.2-8.2h41V43c0-13.6,11-24.6,24.6-24.6s24.6,11,24.6,24.6v8.2h41   c4.5,0,8.2,3.7,8.2,8.2v41H182.3V59.4z M419.9,469c0,13.6-11,24.6-24.6,24.6H116.7c-13.6,0-24.6-11-24.6-24.6V108.5   c0-13.6,11-24.6,24.6-24.6h49.2v32.8h180.3V83.9h49.2c13.6,0,24.6,11,24.6,24.6V469z"/><path d="M124.9,231.4h81.9v-81.9h-81.9V231.4z M141.3,165.9h49.2V215h-49.2V165.9z"/><path d="M124.9,346.1h81.9v-81.9h-81.9V346.1z M141.3,280.6h49.2v49.2h-49.2V280.6z"/><path d="M124.9,460.8h81.9v-81.9h-81.9V460.8z M141.3,395.3h49.2v49.2h-49.2V395.3z"/><rect x="239.6" y="190.5" width="147.5" height="16.4"/><rect x="239.6" y="305.2" width="147.5" height="16.4"/><rect x="239.6" y="419.9" width="147.5" height="16.4"/><rect x="247.8" y="67.5" width="16.4" height="16.4"/><rect x="280.6" y="67.5" width="16.4" height="16.4"/><rect x="215" y="67.5" width="16.4" height="16.4"/></g></svg>