<svg xmlns="http://www.w3.org/2000/svg" xmlns:xlink="http://www.w3.org/1999/xlink" version="1.1" x="0px" y="0px" viewBox="0 0 100 125" style="enable-background:new 0 0 100 100;" xml:space="preserve"><path d="M15.6,58.1c0.9,3.8,2.4,7.3,4.3,10.5c-2.1,2.3-3.9,4.4-5.4,6.3c2.9,4.1,6.5,7.7,10.6,10.6c1.9-1.5,4-3.3,6.3-5.4  c3.2,2,6.7,3.4,10.5,4.3c0.2,3.1,0.4,5.9,0.6,8.3c2.4,0.4,4.9,0.7,7.5,0.7s5.1-0.2,7.5-0.7c0.2-2.4,0.4-5.2,0.6-8.3  c3.8-0.9,7.3-2.4,10.5-4.3c2.3,2.1,4.4,3.9,6.3,5.4c4.1-2.9,7.7-6.5,10.6-10.6c-1.5-1.9-3.3-4-5.4-6.3c2-3.2,3.4-6.7,4.3-10.5  c3.1-0.2,5.9-0.4,8.3-0.6c0.4-2.4,0.7-4.9,0.7-7.5s-0.2-5.1-0.7-7.5c-2.4-0.2-5.2-0.4-8.3-0.6c-0.9-3.8-2.4-7.3-4.3-10.5  c2.1-2.3,3.9-4.4,5.4-6.3C82.6,21,79,17.4,74.9,14.5c-1.9,1.5-4,3.3-6.3,5.4c-3.2-2-6.7-3.4-10.5-4.3c-0.2-3.1-0.4-5.9-0.6-8.3  c-2.4-0.4-4.9-0.7-7.5-0.7s-5.1,0.2-7.5,0.7c-0.2,2.4-0.4,5.2-0.6,8.3c-3.8,0.9-7.3,2.4-10.5,4.3c-2.3-2.1-4.4-3.9-6.3-5.4  C21,17.4,17.4,21,14.5,25.1c1.5,1.9,3.3,4,5.4,6.3c-2,3.2-3.4,6.7-4.3,10.5c-3.1,0.2-5.9,0.4-8.3,0.6c-0.4,2.4-0.7,4.9-0.7,7.5  s0.2,5.1,0.7,7.5C9.7,57.7,12.5,57.9,15.6,58.1z M50,27.3c12.6,0,22.7,10.2,22.7,22.7c0,12.6-10.2,22.7-22.7,22.7S27.3,62.6,27.3,50  C27.3,37.4,37.4,27.3,50,27.3z"/></svg>