<svg xmlns="http://www.w3.org/2000/svg" xmlns:xlink="http://www.w3.org/1999/xlink" version="1.1" x="0px" y="0px" viewBox="0 0 100 125" enable-background="new 0 0 100 100" xml:space="preserve"><path d="M47.4,43.3V32.5c0-1.8-1.5-3.2-3.2-3.2c-1.8,0-3.2,1.5-3.2,3.2v11.7c0,0.1,0,0.1,0,0.2c0,0.1,0,0.2,0,0.4  c0,0.1,0,0.2,0.1,0.3c0,0.1,0.1,0.2,0.1,0.3c0,0.1,0.1,0.2,0.1,0.3c0,0.1,0,0.1,0.1,0.2l5.8,10.1c0.6,1,1.7,1.6,2.8,1.6  c0.5,0,1.1-0.1,1.6-0.4c1.6-0.9,2.1-2.9,1.2-4.4L47.4,43.3z"/><path d="M70,30.4c-0.2-0.2-0.4-0.4-0.6-0.6L58.1,18.5c-0.6-0.6-1.4-0.9-2.3-0.9v0h-35c-1.8,0-3.2,1.5-3.2,3.2v46.7  c0,1.8,1.5,3.2,3.2,3.2h8.4v8.4c0,1.8,1.5,3.2,3.2,3.2h46.7c1.8,0,3.2-1.5,3.2-3.2v-35c0-0.9-0.3-1.7-0.9-2.3L70,30.4z M24.1,64.3  V24.1h28.5v8.4c0,0.9,0.4,1.7,1,2.3c0.6,0.6,1.4,0.9,2.2,0.9c0,0,0.1,0,0.1,0c0.1,0,4.9-0.2,8.3-0.2v28.7H24.1z M75.9,75.9H35.7  v-5.2h31.8c1.8,0,3.2-1.5,3.2-3.2V40.3l5.2,5.2V75.9z"/></svg>